Full Credits To Feel Free :)

 ######## ######## ######## ##          ######## ########  ######## ######## 
 ##       ##       ##       ##          ##       ##     ## ##       ##       
 ##       ##       ##       ##          ##       ##     ## ##       ##       
 ######   ######   ######   ##          ######   ########  ######   ######   
 ##       ##       ##       ##          ##       ##   ##   ##       ##       
 ##       ##       ##       ##          ##       ##    ##  ##       ##       
 ##       ######## ######## ########    ##       ##     ## ######## ########

 Genre:Thriller
 Language:English
 IMDb: 
http://www.imdb.com/title/tt1316622/
 Source:1080p.Bluray.x264-OPS Thanks!
 Subtitles:Romana

 Format : MPEG-4
 Format profile : Base Media
 Codec ID : isom
 File size : 2.09 GiB
 Duration : 1h 29mn
 Overall bit rate : 3 332 Kbps

 Video
 ID : 1
 Format : AVC
 Format/Info : Advanced Video Codec
 Format profile : High@L4.1
 Format settings, CABAC : Yes
 Format settings, ReFrames : 3 frames
 Format settings, GOP : M=1, N=24
 Codec ID : avc1
 Codec ID/Info : Advanced Video Coding
 Duration : 1h 29mn
 Bit rate mode : Variable
 Bit rate : 3 000 Kbps
 Maximum bit rate : 14.2 Mbps
 Width : 1 280 pixels
 Height : 528 pixels
 Display aspect ratio : 2.40:1
 Frame rate mode : Constant
 Frame rate : 23.976 fps
 Color space : YUV
 Chroma subsampling : 4:2:0
 Bit depth : 8 bits
 Scan type : Progressive
 Bits/(Pixel*Frame) : 0.185
 Stream size : 1.80 GiB (87%)
 Writing library : x264

 Audio
 ID : 2
 Format : AAC
 Format/Info : Advanced Audio Codec
 Format version : Version 4
 Format profile : LC
 Format settings, SBR : No
 Codec ID : 40
 Duration : 1h 29mn
 Bit rate mode : Variable
 Bit rate : 446 Kbps
 Maximum bit rate : 583 Kbps
 Channel(s) : 6 channels
 Channel positions : Front: L C R, Side: L R, LFE
 Sampling rate : 48.0 KHz
 Stream size : 286 MiB (13%)


 Plot:
 A man trapped in a car wreck at the bottom of a ravine must overcome incredible odds to survive



Greets:

 INK,CRYS,IMAGINE,LKRG,FXG,3Li,FLAWL3SS,TA,iLLUSiON,ViSiON,DTRG SAFCuk009,LU,TheFalcon007,MYSTiC,PrisM,Noir,WBZ,LAP,Rx,Kingdom,SAFCuk009+Fabreezy,HDLiTE,TWiZTED,ExtraTorrentRG.ELEKTRI4KA,MAGNAT,CM8
 And to all the other p2p grps past and present




==================================                        
http://thepiratebay.org/user/hiest
==================================




Screenshots:
  
http://leetleech.org/images/52248827585351309490.png
 
http://leetleech.org/images/74548249658605261284.png
 
http://leetleech.org/images/32805630315226032646.png


Full Credits To Feel Free :)

 ######## ######## ######## ##          ######## ########  ######## ######## 
 ##       ##       ##       ##          ##       ##     ## ##       ##       
 ##       ##       ##       ##          ##       ##     ## ##       ##       
 ######   ######   ######   ##          ######   ########  ######   ######   
 ##       ##       ##       ##          ##       ##   ##   ##       ##       
 ##       ##       ##       ##          ##       ##    ##  ##       ##       
 ##       ######## ######## ########    ##       ##     ## ######## ########